<svg width="18" height="18" viewBox="0 0 18 18" fill="none" xmlns="http://www.w3.org/2000/svg">
<path d="M8.97461 7.42388C8.97461 7.61288 9.12823 7.76138 9.31599 7.76138C9.70517 7.76138 10.0192 8.07526 10.0192 8.45663C10.0192 8.64225 10.1729 8.79413 10.3606 8.79413C10.5484 8.79413 10.702 8.64225 10.702 8.45663C10.702 7.70064 10.0807 7.08638 9.31599 7.08638C9.12823 7.08638 8.97461 7.23826 8.97461 7.42388ZM14.5323 8.79413C14.7234 8.79413 14.8737 8.64225 14.8737 8.45663C14.8737 5.42589 12.3816 2.96214 9.31599 2.96214C9.12823 2.96214 8.97461 3.114 8.97461 3.29964C8.97461 3.48526 9.12823 3.63714 9.31599 3.63714C12.0061 3.63714 14.1909 5.80051 14.1909 8.45663C14.1909 8.64225 14.3445 8.79413 14.5323 8.79413Z" fill="#161C35"/>
<path d="M12.1042 8.45663C12.1042 8.64225 12.2578 8.79413 12.4456 8.79413C12.6333 8.79413 12.7869 8.64225 12.7869 8.45663C12.7869 6.56326 11.2302 5.02426 9.31511 5.02426C9.12736 5.02426 8.97373 5.17614 8.97373 5.36176C8.97373 5.55076 9.12736 5.69926 9.31511 5.69926C10.8547 5.69926 12.1042 6.93788 12.1042 8.45663ZM9.31511 0.900002C9.12736 0.900002 8.97373 1.05188 8.97373 1.2375C8.97373 1.42314 9.12736 1.575 9.31511 1.575C13.1556 1.575 16.2793 4.66314 16.2793 8.45663C16.2793 8.64225 16.4295 8.79413 16.6206 8.79413C16.8084 8.79413 16.962 8.64225 16.962 8.45663C16.962 4.28852 13.5311 0.900002 9.31511 0.900002ZM12.6504 12.0139L12.2032 12.2535C11.4487 12.6619 10.8617 13.7813 9.93062 12.9375L7.49957 10.5L5.3995 8.45663C4.34441 7.1235 5.52581 6.80625 5.93887 6.05701L6.18125 5.61827C6.45435 5.11875 6.55335 4.55851 6.47142 3.99825C6.39291 3.43801 6.13687 2.92838 5.72721 2.52338C5.22881 2.03064 4.56654 1.76064 3.85988 1.76064C3.15322 1.76064 2.48753 2.03064 1.98911 2.52338L1.81502 2.69888C0.893294 3.61014 0.787467 5.1795 1.51461 7.1235C2.20076 8.97975 3.58336 10.9913 5.3995 12.7868C8.16808 15.5239 11.2507 17.1 13.4629 17.1C14.3368 17.1 15.0776 16.8536 15.6033 16.3339L15.7808 16.1584C16.2758 15.669 16.5524 15.0143 16.5558 14.3089C16.5524 13.6204 16.269 12.9454 15.7808 12.4628C14.9581 11.6494 13.6711 11.4671 12.6504 12.0139Z" fill="#161C35"/>
</svg>
